<svg xmlns="http://www.w3.org/2000/svg" xmlns:xlink="http://www.w3.org/1999/xlink" width="1563" zoomAndPan="magnify" viewBox="0 0 1172.25 1172.249948" height="1563" preserveAspectRatio="xMidYMid meet" version="1.0"><defs><g/><clipPath id="35e9192022"><path d="M 119.269531 517 L 301 517 L 301 650 L 119.269531 650 Z M 119.269531 517 " clip-rule="nonzero"/></clipPath><clipPath id="c0726afdb1"><path d="M 123 544 L 297 544 L 297 591 L 123 591 Z M 123 544 " clip-rule="nonzero"/></clipPath><clipPath id="e57ff1ffba"><path d="M 127.082031 530.382812 L 301.542969 559.566406 L 295.484375 595.792969 L 121.023438 566.609375 Z M 127.082031 530.382812 " clip-rule="nonzero"/></clipPath><clipPath id="98d80cbd3c"><path d="M 301.542969 559.566406 L 127.082031 530.382812 L 121.023438 566.609375 L 295.484375 595.792969 Z M 301.542969 559.566406 " clip-rule="nonzero"/></clipPath><clipPath id="d149f83bb0"><path d="M 117.257812 644.355469 L 299.035156 644.355469 L 299.035156 658.5625 L 117.257812 658.5625 Z M 117.257812 644.355469 " clip-rule="nonzero"/></clipPath></defs><path fill="#135eff" d="M 223.921875 603.671875 C 220.175781 603.679688 216.414062 603.683594 212.707031 603.132812 C 213.804688 604.21875 215.519531 604.289062 217.066406 604.285156 C 232.261719 604.28125 247.460938 604.277344 262.660156 604.273438 C 264.210938 604.273438 265.808594 604.28125 267.242188 604.878906 C 267.429688 604.289062 266.640625 603.890625 266.03125 603.804688 C 264.628906 603.613281 263.214844 603.613281 261.800781 603.617188 C 249.175781 603.636719 236.546875 603.65625 223.921875 603.671875 Z M 223.921875 603.671875 " fill-opacity="1" fill-rule="nonzero"/><path fill="#135eff" d="M 208.222656 604.273438 C 204.496094 602.960938 200.742188 601.734375 196.960938 600.59375 C 196.078125 600.328125 195.179688 600.066406 194.257812 600.039062 C 194.011719 600.035156 193.664062 600.25 193.835938 600.429688 C 199.1875 601.773438 204.449219 603.472656 209.578125 605.511719 C 210.027344 605.6875 210.546875 605.867188 210.972656 605.644531 C 210.1875 604.976562 209.191406 604.617188 208.222656 604.273438 Z M 208.222656 604.273438 " fill-opacity="1" fill-rule="nonzero"/><path fill="#135eff" d="M 240.882812 611.492188 C 241.199219 611.828125 241.71875 611.851562 242.179688 611.851562 C 252.496094 611.855469 262.8125 611.851562 273.128906 611.835938 C 273.421875 611.570312 272.859375 611.210938 272.464844 611.210938 C 262.667969 611.207031 252.871094 611.207031 243.074219 611.203125 C 242.332031 611.203125 241.566406 611.207031 240.882812 611.492188 Z M 240.882812 611.492188 " fill-opacity="1" fill-rule="nonzero"/><path fill="#135eff" d="M 254.683594 613.191406 C 254.480469 614.019531 254.40625 614.878906 254.46875 615.734375 C 254.503906 616.179688 254.605469 616.675781 254.976562 616.929688 C 255.988281 617.628906 257.390625 618.117188 258.402344 617.417969 C 259.09375 616.9375 259.359375 616.058594 259.582031 615.246094 C 259.664062 614.949219 259.742188 614.65625 259.824219 614.359375 C 259.925781 613.980469 260.027344 613.558594 259.84375 613.207031 C 259.558594 612.664062 258.800781 612.644531 258.1875 612.699219 C 257.109375 612.792969 256.03125 612.890625 254.957031 612.984375 C 254.875 612.992188 254.789062 613.003906 254.738281 613.0625 C 254.707031 613.097656 254.695312 613.144531 254.683594 613.191406 Z M 254.683594 613.191406 " fill-opacity="1" fill-rule="nonzero"/><path fill="#135eff" d="M 275.894531 608.132812 C 276.011719 608.03125 276.09375 607.890625 276.125 607.738281 C 275.523438 607.429688 274.925781 607.121094 274.328125 606.8125 C 277.589844 606.5625 280.882812 606.691406 284.113281 607.199219 C 284.253906 607.039062 284.183594 606.773438 284.019531 606.636719 C 283.855469 606.5 283.636719 606.464844 283.425781 606.433594 C 281.457031 606.148438 279.460938 606.039062 277.472656 606.113281 C 275.871094 606.171875 274.25 606.34375 272.671875 606.066406 C 272.21875 605.988281 271.683594 605.894531 271.363281 606.226562 C 272.875 606.863281 274.386719 607.5 275.894531 608.132812 Z M 275.894531 608.132812 " fill-opacity="1" fill-rule="nonzero"/><path fill="#135eff" d="M 292.835938 614.535156 C 293.34375 614.308594 293.433594 613.574219 293.152344 613.09375 C 292.78125 612.445312 291.976562 612.167969 291.230469 612.171875 C 290.015625 612.183594 288.828125 612.847656 288.1875 613.875 C 288.886719 614.304688 289.734375 614.386719 290.554688 614.460938 C 291.066406 614.503906 291.578125 614.550781 292.089844 614.597656 C 292.339844 614.621094 292.605469 614.640625 292.835938 614.535156 Z M 292.835938 614.535156 " fill-opacity="1" fill-rule="nonzero"/><path fill="#135eff" d="M 171.308594 610.652344 C 171.710938 610.835938 172.191406 610.601562 172.621094 610.710938 C 172.972656 610.804688 173.351562 610.59375 173.566406 610.296875 C 173.78125 610 173.871094 609.632812 173.953125 609.277344 C 174.050781 608.84375 174.09375 608.273438 173.699219 608.066406 C 173.558594 607.992188 173.390625 607.988281 173.226562 607.988281 C 172.910156 607.988281 172.589844 607.984375 172.273438 607.984375 C 171.902344 607.980469 171.492188 607.996094 171.226562 608.253906 C 171.015625 608.457031 170.953125 608.761719 170.898438 609.046875 C 170.789062 609.636719 170.765625 610.40625 171.308594 610.652344 M 173.125 608.667969 C 173.199219 608.683594 173.277344 608.703125 173.324219 608.761719 C 173.359375 608.800781 173.371094 608.855469 173.378906 608.910156 C 173.433594 609.332031 173.207031 609.78125 172.828125 609.988281 C 172.453125 610.195312 171.953125 610.144531 171.625 609.867188 C 171.289062 609.582031 171.457031 608.980469 171.835938 608.753906 C 172.214844 608.53125 172.695312 608.578125 173.125 608.667969 Z M 173.125 608.667969 " fill-opacity="1" fill-rule="nonzero"/><path fill="#135eff" d="M 148.128906 605.851562 C 147.652344 605.90625 147.136719 606.121094 146.957031 606.570312 C 146.808594 606.941406 146.925781 607.382812 146.761719 607.746094 C 146.601562 608.109375 147.109375 608.386719 147.5 608.453125 C 148.003906 608.542969 148.523438 608.625 149.027344 608.519531 C 149.527344 608.417969 150.015625 608.09375 150.167969 607.605469 C 150.328125 607.09375 150.078125 606.515625 149.652344 606.195312 C 149.222656 605.875 148.660156 605.789062 148.128906 605.851562 M 147.648438 607.734375 C 147.316406 607.5 147.429688 606.929688 147.769531 606.703125 C 148.109375 606.476562 148.554688 606.503906 148.957031 606.585938 C 149.058594 606.605469 149.160156 606.628906 149.25 606.683594 C 149.59375 606.898438 149.511719 607.476562 149.183594 607.714844 C 148.855469 607.953125 148.40625 607.9375 148.007812 607.863281 C 147.882812 607.839844 147.753906 607.808594 147.648438 607.734375 Z M 147.648438 607.734375 " fill-opacity="1" fill-rule="nonzero"/><path fill="#135eff" d="M 221.75 612.039062 C 220.566406 611.792969 219.273438 612.167969 218.398438 613 C 218.179688 613.210938 217.976562 613.46875 217.953125 613.769531 C 217.933594 614.074219 218.175781 614.402344 218.480469 614.371094 C 219.914062 614.222656 221.378906 614.335938 222.773438 614.707031 C 223.382812 614.492188 223.589844 613.65625 223.304688 613.078125 C 223.015625 612.5 222.382812 612.167969 221.75 612.039062 Z M 221.75 612.039062 " fill-opacity="1" fill-rule="nonzero"/><path fill="#135eff" d="M 282.210938 612.042969 C 281.964844 612.132812 281.734375 612.324219 281.476562 612.277344 C 280.65625 612.128906 280.039062 613.035156 279.855469 613.851562 C 279.820312 613.992188 279.792969 614.144531 279.832031 614.285156 C 279.941406 614.71875 280.511719 614.804688 280.960938 614.804688 C 281.660156 614.800781 282.363281 614.796875 283.0625 614.792969 C 283.246094 614.792969 283.457031 614.78125 283.585938 614.648438 C 283.667969 614.570312 283.707031 614.453125 283.734375 614.339844 C 283.882812 613.792969 283.902344 613.183594 283.632812 612.683594 C 283.363281 612.183594 282.742188 611.851562 282.210938 612.042969 Z M 282.210938 612.042969 " fill-opacity="1" fill-rule="nonzero"/><path fill="#135eff" d="M 231.761719 614.601562 C 232.175781 614.628906 232.65625 614.625 232.921875 614.308594 C 233.324219 613.828125 232.910156 613.117188 232.507812 612.640625 C 232.152344 612.222656 231.738281 611.773438 231.191406 611.726562 C 230.917969 611.703125 230.652344 611.785156 230.394531 611.875 C 229.585938 612.167969 228.816406 612.578125 228.125 613.085938 C 227.914062 613.238281 227.703125 613.414062 227.609375 613.65625 C 227.515625 613.894531 227.582031 614.21875 227.820312 614.328125 C 227.90625 614.367188 228.003906 614.375 228.097656 614.378906 C 229.320312 614.453125 230.539062 614.527344 231.761719 614.601562 Z M 231.761719 614.601562 " fill-opacity="1" fill-rule="nonzero"/><path fill="#135eff" d="M 213.542969 614.691406 C 213.664062 614.726562 213.789062 614.765625 213.914062 614.757812 C 214.421875 614.722656 214.554688 614.027344 214.4375 613.535156 C 214.214844 612.617188 213.503906 611.75 212.566406 611.648438 C 211.816406 611.570312 211.109375 611.976562 210.464844 612.371094 C 210.039062 612.628906 209.582031 612.921875 209.417969 613.390625 C 209.253906 613.863281 209.589844 614.511719 210.082031 614.441406 C 211.238281 614.273438 212.425781 614.359375 213.542969 614.691406 Z M 213.542969 614.691406 " fill-opacity="1" fill-rule="nonzero"/><g clip-path="url(#35e9192022)"><path fill="#135eff" d="M 288.445312 605.460938 C 290.765625 577.765625 278.050781 549.144531 255.613281 532.742188 C 233.175781 516.339844 201.714844 512.984375 176.550781 524.78125 C 151.386719 536.578125 133.761719 563.246094 133.3125 591.035156 C 130.199219 589.164062 126.613281 588.089844 122.984375 587.941406 C 124.609375 593.609375 126.230469 599.277344 127.855469 604.945312 C 125.078125 604.957031 123.472656 608.140625 123.117188 610.894531 C 122.761719 613.644531 122.898438 616.722656 121.078125 618.816406 C 120.3125 619.691406 119.273438 621.113281 120.261719 621.726562 C 122.75 623.273438 124.769531 625.550781 126.007812 628.207031 C 129.15625 634.972656 127.804688 644.566406 134.207031 648.40625 C 130.84375 647.554688 127.164062 648.035156 124.136719 649.722656 C 180.871094 649.828125 237.605469 649.800781 294.339844 649.648438 C 289.210938 647.484375 283.402344 648.011719 277.867188 648.574219 C 282.871094 643.539062 290.394531 641.148438 297.386719 642.363281 C 294.75 638.570312 291.976562 634.222656 292.800781 629.675781 C 298.183594 628.292969 301.261719 621.851562 299.945312 616.457031 C 298.625 611.0625 293.78125 607.007812 288.445312 605.460938 M 170.429688 581.613281 C 170.449219 580.78125 170.441406 579.882812 169.957031 579.207031 C 169.199219 578.160156 167.65625 578.125 166.382812 578.34375 C 160.835938 579.292969 156.1875 582.960938 151.914062 586.621094 C 147.84375 590.109375 143.871094 593.710938 140.003906 597.421875 C 138.765625 598.605469 139.507812 600.875 140.980469 601.753906 C 142.453125 602.628906 144.285156 602.527344 145.992188 602.398438 C 144.539062 605.734375 143.613281 609.296875 143.253906 612.914062 C 140.933594 613.753906 138.574219 611.5625 136.109375 611.585938 C 134.140625 611.605469 132.507812 613.003906 130.839844 614.050781 C 129.171875 615.097656 126.847656 615.785156 125.351562 614.503906 C 124.5 611.433594 125.929688 608.121094 128.074219 605.765625 C 130.222656 603.414062 133.023438 601.78125 135.617188 599.933594 C 145.714844 592.738281 153.492188 581.730469 165.296875 577.933594 C 170.472656 576.269531 176.003906 576.164062 181.441406 576.117188 C 194.46875 576.011719 207.5 576.175781 220.523438 576.613281 C 223.457031 576.710938 226.472656 576.839844 229.160156 578.023438 C 231.753906 579.167969 233.835938 581.207031 235.851562 583.199219 C 241.132812 588.421875 246.417969 593.644531 251.699219 598.867188 C 246.125 593.683594 240.550781 588.5 234.976562 583.316406 C 232.996094 581.472656 230.949219 579.589844 228.433594 578.601562 C 226.195312 577.722656 223.738281 577.609375 221.335938 577.523438 C 206.460938 576.988281 191.570312 576.972656 176.695312 577.480469 C 175.34375 577.527344 173.8125 577.664062 172.972656 578.726562 C 172.339844 579.523438 172.289062 580.621094 172.269531 581.640625 C 172.160156 586.769531 172.054688 591.902344 171.945312 597.03125 C 171.933594 597.660156 171.957031 598.375 172.433594 598.785156 C 172.816406 599.113281 173.367188 599.128906 173.875 599.128906 C 196.113281 599.136719 218.355469 599.140625 240.597656 599.148438 C 257.367188 599.152344 274.800781 599.304688 289.882812 606.632812 C 294.882812 609.0625 300.113281 613.476562 299.351562 618.980469 C 298.980469 616.875 298.589844 614.722656 297.519531 612.871094 C 296.449219 611.019531 294.546875 609.5 292.40625 609.503906 C 288.066406 609.503906 283.726562 609.507812 279.390625 609.511719 C 277.433594 609.511719 275.945312 611.28125 275.097656 613.046875 C 274.25 614.808594 273.691406 616.800781 272.273438 618.144531 C 270.304688 620.007812 267.300781 620.09375 264.59375 620.066406 C 257.757812 620.003906 250.921875 619.941406 244.085938 619.878906 C 242.207031 619.863281 240.785156 618.152344 239.996094 616.449219 C 239.203125 614.742188 238.707031 612.824219 237.386719 611.484375 C 235.421875 609.488281 232.292969 609.386719 229.492188 609.414062 C 223.832031 609.46875 218.171875 609.523438 212.511719 609.578125 C 211.40625 609.585938 210.257812 609.609375 209.269531 610.109375 C 207.089844 611.21875 206.628906 614.050781 205.53125 616.238281 C 204.429688 618.421875 200.980469 619.988281 199.796875 617.84375 C 201.171875 615.109375 202.976562 612.59375 205.125 610.414062 C 203.421875 610.277344 202.628906 612.390625 201.863281 613.917969 C 200.433594 616.765625 197.25 618.640625 194.066406 618.507812 C 190.878906 618.375 187.863281 616.242188 186.679688 613.28125 C 185.308594 609.863281 180.410156 609.902344 176.964844 611.199219 C 173.515625 612.496094 169.726562 614.460938 166.382812 612.917969 C 168.820312 602.664062 170.179688 592.152344 170.429688 581.613281 M 219.03125 596.859375 C 217.976562 596.847656 216.679688 596.675781 216.304688 595.691406 C 215.613281 593.855469 213.847656 592.59375 211.976562 592.011719 C 210.105469 591.425781 208.109375 591.421875 206.148438 591.421875 C 203.847656 591.421875 201.507812 591.425781 199.300781 592.082031 C 197.09375 592.738281 195 594.148438 194.074219 596.253906 C 193.816406 596.839844 193.039062 596.929688 192.398438 596.933594 C 186.703125 596.972656 181.007812 597.011719 175.3125 597.050781 C 175.03125 597.054688 174.71875 597.046875 174.511719 596.859375 C 174.289062 596.660156 174.257812 596.328125 174.238281 596.03125 C 173.996094 591.632812 173.960938 587.222656 174.140625 582.820312 C 174.167969 582.089844 174.257812 581.257812 174.859375 580.839844 C 175.253906 580.566406 175.773438 580.554688 176.253906 580.554688 C 192.324219 580.550781 208.394531 580.546875 224.460938 580.542969 C 225.808594 580.539062 227.1875 580.546875 228.449219 581.023438 C 229.789062 581.53125 230.878906 582.53125 231.925781 583.511719 C 236.710938 587.988281 241.4375 592.53125 246.101562 597.136719 C 237.078125 597.042969 228.054688 596.953125 219.03125 596.859375 M 265.132812 638.390625 C 272.894531 638.625 280.703125 639.125 288.402344 638.082031 C 290.109375 637.847656 291.882812 637.546875 293.519531 638.082031 C 295.160156 638.613281 296.566406 640.316406 296.109375 641.976562 C 261.363281 641.835938 226.621094 641.867188 191.878906 642.070312 C 192.03125 640.425781 193.425781 639.109375 194.976562 638.542969 C 196.527344 637.976562 198.222656 638.011719 199.871094 638.054688 C 212.230469 638.367188 224.59375 638.679688 236.953125 638.996094 C 236.675781 638.78125 236.398438 638.566406 236.121094 638.355469 C 245.792969 638.226562 255.464844 638.097656 265.132812 638.390625 M 208.597656 642.515625 C 223.816406 642.523438 239.035156 642.527344 254.253906 642.535156 C 254.820312 642.535156 255.523438 642.628906 255.707031 643.160156 C 256.570312 645.675781 258.785156 647.679688 261.371094 648.296875 C 240.867188 648.296875 220.363281 648.296875 199.859375 648.296875 C 202.5 647.433594 204.824219 645.636719 206.320312 643.296875 C 206.773438 642.589844 207.757812 642.515625 208.597656 642.515625 M 129.308594 639.375 C 128.304688 639.277344 128.210938 637.867188 128.332031 636.867188 C 128.691406 633.945312 128.398438 630.988281 128.230469 628.050781 C 128.058594 625.113281 128.019531 622.109375 128.855469 619.289062 C 129.695312 616.464844 131.539062 613.8125 134.242188 612.644531 C 135.21875 612.21875 136.34375 612.003906 137.355469 612.347656 C 138.632812 612.785156 139.464844 614.019531 140.015625 615.253906 C 140.917969 617.265625 141.328125 619.453125 141.847656 621.597656 C 142.746094 625.289062 143.988281 628.898438 145.554688 632.363281 C 146.027344 633.410156 146.597656 634.515625 147.628906 635.019531 C 148.324219 635.363281 149.132812 635.375 149.910156 635.378906 C 155.890625 635.421875 161.875 635.464844 167.859375 635.503906 C 168.105469 635.507812 168.152344 635.851562 168.121094 636.09375 C 167.953125 637.320312 167.789062 638.546875 167.621094 639.773438 C 167.597656 639.941406 167.570312 640.125 167.453125 640.25 C 167.300781 640.414062 167.046875 640.425781 166.820312 640.429688 C 158.742188 640.472656 150.664062 640.511719 142.585938 640.554688 C 142.234375 640.558594 141.765625 640.453125 141.753906 640.101562 C 141.609375 635.996094 141.175781 631.898438 140.457031 627.855469 C 139.867188 624.535156 139.042969 621.152344 137.082031 618.410156 C 136.171875 617.132812 134.753906 615.933594 133.214844 616.222656 C 131.609375 616.523438 130.742188 618.257812 130.273438 619.824219 C 128.714844 625.074219 128.933594 630.664062 129.167969 636.136719 C 129.214844 637.214844 129.261719 638.296875 129.308594 639.375 M 172.597656 628.535156 C 173.507812 623.320312 177.421875 618.40625 182.640625 617.542969 C 183.800781 617.351562 185.375 617.675781 185.488281 618.84375 C 182.855469 618.859375 180.246094 619.949219 178.382812 621.808594 C 179.574219 623.027344 180.777344 624.253906 182.175781 625.230469 C 183.175781 625.921875 184.515625 626.484375 185.566406 625.867188 C 186.414062 625.367188 186.71875 624.277344 186.714844 623.292969 C 186.710938 622.304688 186.480469 621.320312 186.59375 620.34375 C 186.75 618.96875 185.949219 617.628906 184.878906 616.753906 C 183.0625 615.265625 180.484375 614.871094 178.21875 615.488281 C 175.957031 616.101562 174.007812 617.644531 172.632812 619.546875 C 172.839844 617.453125 173.472656 615.367188 174.738281 613.6875 C 176 612.007812 177.945312 610.78125 180.042969 610.667969 C 182.199219 610.550781 184.300781 611.605469 185.828125 613.132812 C 187.355469 614.660156 188.375 616.621094 189.191406 618.617188 C 189.375 619.066406 189.339844 619.816406 188.863281 619.757812 C 188.261719 619.6875 187.683594 620.101562 187.386719 620.628906 C 187.089844 621.15625 187.011719 621.777344 186.945312 622.378906 C 186.917969 622.644531 186.894531 622.929688 187.023438 623.167969 C 187.246094 623.570312 187.792969 623.632812 188.253906 623.648438 C 190.273438 623.710938 192.292969 623.773438 194.3125 623.832031 C 193.917969 624.4375 193.054688 624.449219 192.335938 624.398438 C 190.558594 624.265625 188.78125 624.132812 187 624 C 187.550781 624.835938 187.929688 625.78125 188.121094 626.765625 C 187.722656 626.253906 186.984375 626.117188 186.355469 626.261719 C 185.726562 626.40625 185.179688 626.785156 184.652344 627.160156 C 183.679688 627.847656 182.679688 628.585938 182.140625 629.652344 C 181.605469 630.71875 181.707031 632.203125 182.683594 632.886719 C 180.613281 633.238281 178.53125 633.511719 176.441406 633.710938 C 176.011719 633.753906 175.519531 633.769531 175.210938 633.464844 C 174.796875 633.058594 175.007812 632.300781 175.476562 631.957031 C 175.945312 631.617188 176.5625 631.574219 177.140625 631.542969 C 178.140625 631.492188 179.136719 631.4375 180.132812 631.386719 C 181.519531 631.316406 181.089844 628.671875 182.386719 628.175781 C 180.972656 626.472656 179.398438 624.902344 177.6875 623.496094 C 177.316406 623.191406 176.777344 623.582031 176.484375 623.964844 C 173.910156 627.296875 173.269531 632.019531 174.859375 635.914062 C 176.449219 639.8125 180.210938 642.738281 184.378906 643.316406 C 185.566406 643.484375 186.835938 643.457031 187.886719 642.878906 C 188.9375 642.304688 189.683594 641.054688 189.378906 639.898438 C 189.179688 639.140625 188.570312 638.46875 188.667969 637.691406 C 188.746094 637.101562 188.34375 636.535156 187.832031 636.234375 C 187.320312 635.933594 186.714844 635.84375 186.125 635.757812 C 185.535156 635.671875 184.785156 635.664062 184.515625 636.199219 C 183.664062 637.882812 182.808594 639.566406 181.957031 641.253906 C 181.875 641.410156 181.792969 641.574219 181.660156 641.691406 C 181.175781 642.109375 180.363281 641.617188 180.238281 640.992188 C 180.117188 640.363281 180.433594 639.746094 180.742188 639.1875 C 181.691406 637.460938 182.648438 635.722656 183.914062 634.214844 C 184.472656 633.546875 185.53125 634.207031 186.082031 634.875 C 186.636719 635.542969 187.578125 636.296875 188.242188 635.738281 C 188.820312 635.25 188.800781 633.964844 189.554688 634.058594 C 189.472656 634.46875 189.390625 634.882812 189.308594 635.292969 C 190.164062 635.148438 191.042969 635.003906 191.890625 635.175781 C 192.742188 635.351562 193.566406 635.921875 193.789062 636.757812 C 194.371094 638.984375 190.625 640.625 191.21875 642.84375 C 191.292969 643.121094 191.027344 643.359375 190.785156 643.511719 C 186.589844 646.15625 180.707031 645.359375 176.996094 642.074219 C 173.28125 638.789062 171.746094 633.417969 172.597656 628.535156 M 168.273438 601.953125 C 166.816406 605.464844 165.953125 609.226562 165.742188 613.027344 C 158.570312 613.011719 151.398438 612.996094 144.230469 612.980469 C 144.191406 610.0625 144.722656 607.136719 145.789062 604.417969 C 146.058594 603.734375 146.523438 602.949219 147.257812 602.972656 C 154.277344 603.195312 161.3125 602.855469 168.273438 601.953125 M 160.738281 582.886719 C 161.394531 582.261719 162.316406 582.007812 163.203125 581.824219 C 165.003906 581.453125 166.847656 581.292969 168.683594 581.34375 C 168.980469 581.355469 169.3125 581.382812 169.511719 581.609375 C 169.703125 581.828125 169.695312 582.15625 169.675781 582.449219 C 169.457031 585.667969 169.234375 588.886719 169.015625 592.105469 C 168.988281 592.5 168.953125 592.910156 168.742188 593.242188 C 168.527344 593.574219 168.070312 593.78125 167.726562 593.589844 C 167.222656 593.304688 166.554688 593.675781 166.308594 594.199219 C 166.066406 594.722656 166.128906 595.332031 166.199219 595.90625 C 166.382812 597.488281 166.570312 599.074219 166.757812 600.660156 C 163.125 600.726562 159.488281 600.796875 155.855469 600.867188 C 155.671875 600.871094 155.457031 600.851562 155.371094 600.695312 C 155.316406 600.59375 155.335938 600.472656 155.359375 600.363281 C 156.375 595.164062 157.777344 590.039062 159.554688 585.050781 C 159.832031 584.265625 160.136719 583.460938 160.738281 582.886719 M 197.476562 622.011719 C 197.460938 621.597656 197.445312 621.183594 197.429688 620.773438 C 231.402344 620.617188 265.371094 620.582031 299.339844 620.667969 C 299.15625 621.695312 297.804688 621.933594 296.757812 621.9375 C 263.664062 621.960938 230.570312 621.984375 197.476562 622.011719 M 154.710938 642.90625 C 160.007812 642.902344 165.304688 642.898438 170.601562 642.890625 C 171.199219 642.890625 171.914062 642.953125 172.207031 643.472656 C 173.390625 645.554688 175.222656 647.261719 177.382812 648.292969 C 167.8125 648.296875 158.238281 648.300781 148.664062 648.300781 C 150.476562 647.40625 151.90625 645.765625 152.542969 643.851562 C 152.8125 643.046875 153.867188 642.90625 154.710938 642.90625 M 271.308594 629.8125 C 270.984375 630.589844 269.953125 630.707031 269.113281 630.710938 C 259.324219 630.722656 249.539062 630.738281 239.753906 630.75 C 239.046875 630.75 238.175781 630.648438 237.917969 629.988281 C 237.328125 628.484375 235.328125 628.25 233.710938 628.261719 C 219.75 628.363281 205.792969 628.664062 191.839844 629.167969 C 190.566406 629.210938 189.054688 629.136719 188.378906 628.058594 C 189.570312 628.253906 190.78125 628.25 191.988281 628.246094 C 215.484375 628.175781 238.984375 628.101562 262.484375 628.03125 C 265.035156 628.023438 267.589844 628.015625 270.144531 628.007812 C 278.726562 627.980469 287.308594 627.957031 295.890625 628.0625 C 288.8125 628.175781 281.738281 628.292969 274.664062 628.40625 C 273.375 628.425781 271.808594 628.628906 271.308594 629.8125 M 157.492188 583.207031 C 156.445312 584.074219 155.398438 584.9375 154.351562 585.804688 C 155.417969 585.128906 156.484375 584.453125 157.550781 583.78125 C 155.59375 589.164062 153.890625 594.636719 152.449219 600.179688 C 152.304688 600.734375 151.585938 600.863281 151.015625 600.863281 C 147.980469 600.84375 144.953125 600.054688 142.296875 598.589844 C 142.058594 598.457031 141.800781 598.289062 141.75 598.019531 C 141.695312 597.726562 141.910156 597.464844 142.109375 597.246094 C 146.988281 591.984375 152.203125 587.035156 157.710938 582.433594 C 157.972656 582.605469 157.734375 583.007812 157.492188 583.207031 M 216.3125 633.964844 C 216.28125 632.804688 216.25 631.644531 216.21875 630.488281 C 216.214844 630.300781 216.21875 630.089844 216.351562 629.953125 C 216.480469 629.820312 216.6875 629.8125 216.875 629.8125 C 221.382812 629.8125 225.886719 629.8125 230.390625 629.8125 C 230.601562 629.8125 230.828125 629.820312 230.984375 629.957031 C 231.164062 630.117188 231.179688 630.390625 231.179688 630.632812 C 231.183594 631.753906 231.1875 632.878906 231.191406 634 C 231.191406 634.175781 231.179688 634.378906 231.039062 634.484375 C 230.941406 634.558594 230.808594 634.5625 230.683594 634.5625 C 226.097656 634.582031 221.507812 634.597656 216.921875 634.617188 C 216.777344 634.617188 216.621094 634.613281 216.507812 634.527344 C 216.339844 634.40625 216.320312 634.171875 216.3125 633.964844 M 288.378906 634.328125 C 288.375 634.402344 288.367188 634.488281 288.3125 634.535156 C 288.261719 634.578125 288.1875 634.582031 288.121094 634.582031 C 283.921875 634.574219 279.722656 634.5625 275.519531 634.554688 C 275.324219 634.554688 275.101562 634.542969 274.960938 634.40625 C 274.8125 634.261719 274.800781 634.03125 274.800781 633.824219 C 274.800781 632.710938 274.800781 631.601562 274.804688 630.492188 C 274.804688 630.339844 274.804688 630.171875 274.894531 630.042969 C 275.035156 629.832031 275.332031 629.8125 275.585938 629.8125 C 279.726562 629.8125 283.867188 629.8125 288.007812 629.8125 C 288.398438 629.8125 288.507812 630.339844 288.496094 630.730469 C 288.457031 631.929688 288.417969 633.128906 288.378906 634.328125 M 131.710938 639.027344 C 130.644531 633.222656 130.476562 627.078125 132.589844 621.570312 C 133.019531 620.457031 133.621094 619.289062 134.714844 618.808594 C 135.808594 618.328125 137.414062 619.035156 137.34375 620.226562 C 135.515625 620.613281 134.105469 622.152344 133.378906 623.871094 C 132.652344 625.589844 132.496094 627.488281 132.347656 629.347656 C 132.3125 629.808594 132.402344 630.429688 132.859375 630.480469 C 134.296875 630.632812 135.734375 630.78125 137.171875 630.933594 C 137.617188 630.980469 138.167969 631.125 138.242188 631.566406 C 138.335938 632.132812 137.566406 632.394531 136.992188 632.410156 C 135.558594 632.449219 134.125 632.363281 132.710938 632.148438 C 132.386719 632.101562 132.265625 632.558594 132.28125 632.886719 C 132.382812 634.929688 132.488281 637.003906 133.164062 638.9375 C 133.835938 640.867188 135.171875 642.667969 137.078125 643.410156 C 137.121094 644.328125 136.0625 645.007812 135.152344 644.859375 C 134.246094 644.707031 133.539062 643.976562 133.0625 643.1875 C 132.304688 641.929688 131.976562 640.46875 131.710938 639.027344 M 141.875 618.714844 C 142.152344 618.324219 142.710938 618.285156 143.191406 618.28125 C 150.140625 618.253906 157.09375 618.226562 164.042969 618.199219 C 164.917969 618.195312 166.085938 618.457031 166.113281 619.332031 C 166.144531 620.242188 164.910156 620.542969 163.996094 620.535156 C 157.300781 620.496094 150.601562 620.460938 143.902344 620.421875 C 143.355469 620.417969 142.777344 620.40625 142.308594 620.117188 C 141.839844 619.832031 141.5625 619.164062 141.875 618.714844 M 292.734375 618.183594 C 291.636719 619.425781 289.496094 619.535156 288.273438 618.414062 C 287.738281 617.921875 287.390625 617.261719 287.148438 616.578125 C 286.695312 615.28125 286.640625 613.726562 287.476562 612.636719 C 288.21875 611.675781 289.511719 611.28125 290.726562 611.289062 C 291.246094 611.292969 291.777344 611.363281 292.253906 611.582031 C 293.160156 612 293.757812 612.941406 293.929688 613.925781 C 294.101562 614.910156 293.890625 615.929688 293.515625 616.855469 C 293.320312 617.332031 293.078125 617.796875 292.734375 618.183594 M 280.921875 611.25 C 281.492188 611.191406 282.066406 611.28125 282.636719 611.375 C 283.714844 611.546875 284.511719 612.5625 284.726562 613.632812 C 284.941406 614.707031 284.679688 615.816406 284.316406 616.84375 C 284.164062 617.269531 283.996094 617.695312 283.730469 618.0625 C 282.90625 619.199219 281.214844 619.527344 279.9375 618.9375 C 278.664062 618.34375 277.839844 616.980469 277.71875 615.578125 C 277.632812 614.589844 277.871094 613.5625 278.445312 612.75 C 279.019531 611.9375 279.933594 611.355469 280.921875 611.25 M 227.304688 612.71875 C 228.050781 611.394531 229.832031 610.980469 231.324219 611.28125 C 231.714844 611.359375 232.101562 611.480469 232.445312 611.679688 C 233.238281 612.148438 233.726562 613.027344 233.867188 613.933594 C 234.007812 614.839844 233.835938 615.769531 233.539062 616.636719 C 233.265625 617.4375 232.863281 618.226562 232.183594 618.726562 C 230.984375 619.613281 229.164062 619.292969 228.113281 618.238281 C 227.058594 617.183594 226.707031 615.574219 226.894531 614.097656 C 226.957031 613.617188 227.070312 613.140625 227.304688 612.71875 M 124.480469 588.476562 C 124.722656 588.3125 125.050781 588.402344 125.332031 588.496094 C 127.820312 589.347656 130.269531 590.328125 132.660156 591.429688 C 133.015625 591.59375 133.429688 591.847656 133.421875 592.242188 C 133.402344 593.308594 133.53125 594.375 133.800781 595.40625 C 132.226562 595.363281 130.652344 595.320312 129.078125 595.277344 C 128.894531 595.273438 128.703125 595.265625 128.53125 595.199219 C 128.117188 595.035156 127.921875 594.570312 127.757812 594.15625 C 126.941406 592.117188 125.835938 590.199219 124.480469 588.476562 M 222.816406 618.359375 C 222.332031 618.953125 221.542969 619.476562 220.84375 619.175781 C 220.691406 619.109375 220.519531 619.144531 220.355469 619.164062 C 219.445312 619.261719 218.554688 618.714844 218.027344 617.96875 C 217.5 617.222656 217.277344 616.304688 217.144531 615.402344 C 217.0625 614.84375 217.011719 614.273438 217.136719 613.722656 C 217.347656 612.8125 218.046875 612.058594 218.890625 611.644531 C 220.144531 611.03125 221.730469 611.160156 222.871094 611.972656 C 223.238281 612.234375 223.566406 612.5625 223.769531 612.964844 C 223.941406 613.300781 224.027344 613.675781 224.070312 614.050781 C 224.253906 615.578125 223.789062 617.171875 222.816406 618.359375 M 212.703125 619.125 C 211.660156 619.539062 210.410156 619.175781 209.601562 618.398438 C 208.789062 617.621094 208.375 616.503906 208.257812 615.386719 C 208.160156 614.453125 208.265625 613.460938 208.78125 612.675781 C 209.449219 611.671875 210.703125 611.171875 211.90625 611.15625 C 212.683594 611.140625 213.488281 611.316406 214.09375 611.804688 C 214.738281 612.320312 215.089844 613.140625 215.167969 613.964844 C 215.242188 614.785156 215.066406 615.613281 214.808594 616.398438 C 214.441406 617.523438 213.804688 618.683594 212.703125 619.125 M 170.753906 623.082031 C 170.035156 624.898438 169.644531 626.84375 169.601562 628.796875 C 169.589844 629.410156 169.605469 630.046875 169.359375 630.609375 C 168.460938 626.886719 167.5625 623.167969 166.664062 619.449219 C 166.566406 619.046875 166.5 618.539062 166.828125 618.285156 C 167.015625 618.140625 167.273438 618.136719 167.507812 618.136719 C 168.734375 618.132812 169.960938 618.132812 171.1875 618.128906 C 171.449219 618.128906 171.746094 618.148438 171.898438 618.355469 C 171.984375 618.476562 172 618.628906 172.007812 618.773438 C 172.066406 620.28125 171.304688 621.679688 170.753906 623.082031 M 130.730469 602.980469 C 130.207031 600.828125 129.679688 598.671875 128.910156 596.59375 C 130.542969 596.621094 132.179688 596.703125 133.808594 596.839844 C 134.113281 596.867188 134.53125 597.082031 134.382812 597.351562 C 134.144531 597.769531 134.355469 598.285156 134.523438 598.738281 C 134.695312 599.1875 134.78125 599.777344 134.40625 600.074219 C 133.179688 601.042969 131.957031 602.011719 130.730469 602.980469 M 278.492188 598.464844 C 278.652344 599.683594 278.816406 600.902344 278.976562 602.121094 C 278.996094 602.253906 278.929688 602.449219 278.8125 602.394531 C 277.261719 601.675781 275.628906 601.136719 273.957031 600.785156 C 273.453125 600.679688 273.101562 600.199219 272.988281 599.695312 C 272.878906 599.195312 272.960938 598.671875 273.046875 598.167969 C 273.070312 598.023438 273.109375 597.863281 273.238281 597.796875 C 273.296875 597.765625 273.363281 597.765625 273.429688 597.761719 C 274.710938 597.707031 275.992188 597.660156 277.269531 597.617188 C 277.660156 597.605469 278.121094 597.625 278.339844 597.949219 C 278.441406 598.097656 278.46875 598.285156 278.492188 598.464844 M 196.882812 622.257812 C 196.890625 622.363281 196.902344 622.472656 196.871094 622.574219 C 196.769531 622.882812 196.359375 622.929688 196.035156 622.921875 C 193.226562 622.847656 190.417969 622.804688 187.605469 622.792969 C 187.515625 622.070312 187.546875 621.128906 188.234375 620.886719 C 188.40625 620.824219 188.589844 620.824219 188.773438 620.824219 C 191.425781 620.828125 194.078125 620.832031 196.734375 620.835938 C 196.78125 621.308594 196.832031 621.78125 196.882812 622.257812 M 189.191406 633.328125 C 188.417969 633.539062 187.542969 633.433594 186.890625 632.964844 C 186.238281 632.496094 185.851562 631.644531 186.019531 630.859375 C 186.1875 630.074219 186.945312 629.433594 187.75 629.480469 C 188.582031 629.527344 189.414062 629.578125 190.242188 629.628906 C 190.316406 630.574219 190.195312 631.535156 189.898438 632.4375 C 189.773438 632.8125 189.574219 633.222656 189.191406 633.328125 M 120.5625 620.464844 C 120.695312 619.910156 121.421875 619.796875 121.992188 619.796875 C 123.613281 619.800781 125.234375 619.804688 126.855469 619.808594 C 126.972656 619.808594 127.101562 619.8125 127.195312 619.882812 C 127.296875 619.960938 127.332031 620.097656 127.359375 620.222656 C 127.425781 620.539062 127.496094 620.871094 127.417969 621.183594 C 127.339844 621.5 127.070312 621.792969 126.746094 621.78125 C 125.710938 621.734375 124.679688 621.691406 123.648438 621.648438 C 123.152344 621.628906 122.65625 621.609375 122.160156 621.589844 C 121.785156 621.574219 121.398438 621.554688 121.066406 621.378906 C 120.734375 621.207031 120.476562 620.832031 120.5625 620.464844 M 125.164062 607.070312 C 125.542969 606.472656 126.078125 605.878906 126.785156 605.824219 C 125.351562 608.113281 124.574219 610.808594 124.566406 613.507812 C 124.566406 613.863281 124.570312 614.246094 124.382812 614.550781 C 124.195312 614.855469 123.726562 615.015625 123.472656 614.761719 C 123.289062 614.582031 123.296875 614.289062 123.320312 614.035156 C 123.523438 611.617188 123.863281 609.117188 125.164062 607.070312 M 168.324219 640.378906 C 168.195312 640.269531 168.210938 640.070312 168.234375 639.902344 C 168.4375 638.5625 168.640625 637.226562 168.84375 635.886719 C 168.867188 635.722656 168.914062 635.527344 169.070312 635.46875 C 169.308594 635.375 169.503906 635.671875 169.589844 635.910156 C 170.121094 637.398438 170.652344 638.886719 171.183594 640.375 C 170.339844 640.472656 169.488281 640.503906 168.644531 640.46875 C 168.53125 640.464844 168.410156 640.453125 168.324219 640.378906 M 217.917969 635.585938 C 220.796875 635.539062 223.671875 635.492188 226.550781 635.445312 C 228.097656 635.421875 229.648438 635.398438 231.195312 635.5 C 232.039062 635.554688 232.898438 635.652344 233.675781 635.988281 C 234.457031 636.320312 235.15625 636.921875 235.429688 637.722656 C 233.972656 635.980469 231.402344 635.804688 229.128906 635.769531 C 225.390625 635.707031 221.65625 635.648438 217.917969 635.585938 M 206.589844 597.546875 C 207.828125 597.597656 209.066406 597.652344 210.304688 597.707031 C 210.878906 597.734375 211.449219 597.757812 212.023438 597.734375 C 213.210938 597.679688 214.382812 597.414062 215.542969 597.148438 C 215.691406 597.214844 215.695312 597.441406 215.589844 597.566406 C 215.480469 597.6875 215.3125 597.730469 215.152344 597.765625 C 212.324219 598.378906 209.382812 598.441406 206.53125 597.953125 C 206.550781 597.816406 206.570312 597.679688 206.589844 597.546875 M 176.882812 597.996094 C 178.1875 597.824219 179.511719 597.785156 180.824219 597.875 C 181.246094 597.90625 181.785156 598.078125 181.78125 598.5 C 179.855469 598.539062 177.929688 598.578125 176.007812 598.617188 C 176.003906 598.222656 176.492188 598.046875 176.882812 597.996094 M 288.203125 635.425781 C 288.375 635.425781 288.617188 635.542969 288.523438 635.683594 C 284.339844 635.738281 280.152344 635.792969 275.96875 635.847656 C 275.835938 635.703125 276.113281 635.542969 276.304688 635.542969 C 280.273438 635.503906 284.238281 635.464844 288.203125 635.425781 M 218.460938 597.636719 C 219.386719 597.578125 220.316406 597.632812 221.230469 597.800781 C 221.703125 597.886719 222.21875 598.035156 222.476562 598.441406 C 220.863281 598.386719 219.25 598.367188 217.640625 598.378906 C 217.53125 598.183594 217.640625 597.925781 217.824219 597.800781 C 218.007812 597.675781 218.242188 597.652344 218.460938 597.636719 M 138.4375 637.78125 C 138.425781 637.914062 138.414062 638.058594 138.328125 638.160156 C 138.265625 638.238281 138.167969 638.28125 138.070312 638.28125 C 137.972656 636.875 138.117188 635.453125 138.496094 634.09375 C 138.632812 635.316406 138.535156 636.554688 138.4375 637.78125 M 272.378906 637.449219 C 272.371094 637.574219 272.292969 637.695312 272.179688 637.757812 C 271.746094 637.367188 271.71875 636.609375 272.121094 636.183594 C 272.347656 636.558594 272.433594 637.015625 272.359375 637.445312 M 274.878906 635.613281 C 275.183594 635.546875 275.570312 635.515625 275.734375 635.777344 C 275.351562 635.882812 274.9375 635.882812 274.550781 635.78125 C 274.484375 635.644531 274.71875 635.570312 274.867188 635.597656 M 138.464844 627.648438 C 138.609375 627.738281 138.53125 628.015625 138.359375 628.011719 C 138.21875 627.910156 138.304688 627.632812 138.476562 627.632812 Z M 138.464844 627.648438 " fill-opacity="1" fill-rule="nonzero"/></g><g clip-path="url(#c0726afdb1)"><g clip-path="url(#e57ff1ffba)"><g clip-path="url(#98d80cbd3c)"><path fill="#d42020" d="M 290.335938 568.722656 L 296.613281 588.457031 L 249.566406 564.667969 L 264.792969 590.585938 C 264.792969 590.585938 217.804688 560.195312 207.863281 558.738281 L 217.519531 574.585938 C 217.519531 574.585938 185.996094 557.203125 178.988281 558.5625 L 183.683594 565.988281 C 183.683594 565.988281 139.894531 549.527344 123.648438 551.496094 C 123.648438 551.496094 147.730469 547.226562 170.132812 555.664062 L 166.734375 549.359375 C 166.734375 549.359375 182.691406 550.546875 194.050781 555.011719 L 189.410156 544.65625 C 189.410156 544.65625 222.25 550.351562 234.664062 558.597656 L 230.546875 547.726562 C 230.519531 547.6875 271.074219 558.078125 290.335938 568.722656 Z M 290.335938 568.722656 " fill-opacity="1" fill-rule="nonzero"/></g></g></g><path fill="#000000" d="M 288.117188 652.226562 L 129.367188 652.226562 L 129.367188 654.007812 Z M 288.117188 652.226562 " fill-opacity="1" fill-rule="nonzero"/><g clip-path="url(#d149f83bb0)"><path fill="#135eff" d="M 117.257812 644.355469 L 128.269531 644.355469 L 129.964844 647.765625 L 299.035156 647.765625 L 131.050781 647.765625 L 129.15625 649.183594 L 127.46875 646.253906 L 120.253906 646.253906 L 126.273438 657.148438 L 276.722656 657.148438 L 125.460938 658.5625 L 117.257812 644.355469 " fill-opacity="1" fill-rule="nonzero"/></g><path fill="#000000" d="M 301.546875 571.957031 L 948.335938 571.957031 L 948.335938 576.882812 L 301.546875 576.882812 Z M 301.546875 571.957031 " fill-opacity="1" fill-rule="nonzero"/><g fill="#000000" fill-opacity="1"><g transform="translate(301.547803, 567.03123)"><g><path d="M 4.3125 0 L 4.3125 -7.734375 L 33.890625 -7.734375 L 36.453125 -9.859375 L 36.453125 -12.796875 L 33.890625 -14.921875 L 11.296875 -14.921875 L 3.46875 -21.53125 L 3.46875 -30.703125 L 11.296875 -37.3125 L 43.703125 -37.3125 L 43.703125 -29.578125 L 15.515625 -29.578125 L 12.953125 -27.453125 L 12.953125 -24.890625 L 15.515625 -22.75 L 38.109375 -22.75 L 45.9375 -16.15625 L 45.9375 -6.609375 L 38.109375 0 Z M 4.3125 0 "/></g></g></g><g fill="#000000" fill-opacity="1"><g transform="translate(350.275683, 567.03123)"><g><path d="M 3.203125 0 L 3.203125 -7.625 L 12.734375 -7.625 L 12.734375 -29.6875 L 3.203125 -29.6875 L 3.203125 -37.3125 L 31.765625 -37.3125 L 31.765625 -29.6875 L 22.21875 -29.6875 L 22.21875 -7.625 L 31.765625 -7.625 L 31.765625 0 Z M 3.203125 0 "/></g></g></g><g fill="#000000" fill-opacity="1"><g transform="translate(385.210666, 567.03123)"><g><path d="M 5.59375 0 L 5.59375 -37.3125 L 39.921875 -37.3125 L 49.890625 -29 L 49.890625 -8.3125 L 39.921875 0 Z M 15.078125 -8 L 35.65625 -8 L 40.40625 -11.984375 L 40.40625 -25.3125 L 35.65625 -29.3125 L 15.078125 -29.3125 Z M 15.078125 -8 "/></g></g></g><g fill="#000000" fill-opacity="1"><g transform="translate(439.317249, 567.03123)"><g><path d="M 5.59375 0 L 5.59375 -37.3125 L 39.921875 -37.3125 L 49.890625 -29 L 49.890625 -8.3125 L 39.921875 0 Z M 15.078125 -8 L 35.65625 -8 L 40.40625 -11.984375 L 40.40625 -25.3125 L 35.65625 -29.3125 L 15.078125 -29.3125 Z M 15.078125 -8 "/></g></g></g><g fill="#000000" fill-opacity="1"><g transform="translate(493.423832, 567.03123)"><g><path d="M 5.59375 0 L 5.59375 -37.3125 L 15.078125 -37.3125 L 15.078125 -22.8125 L 39.765625 -22.8125 L 39.765625 -37.3125 L 49.25 -37.3125 L 49.25 0 L 39.765625 0 L 39.765625 -14.5 L 15.078125 -14.5 L 15.078125 0 Z M 5.59375 0 "/></g></g></g><g fill="#000000" fill-opacity="1"><g transform="translate(548.22273, 567.03123)"><g><path d="M 3.203125 0 L 3.203125 -7.625 L 12.734375 -7.625 L 12.734375 -29.6875 L 3.203125 -29.6875 L 3.203125 -37.3125 L 31.765625 -37.3125 L 31.765625 -29.6875 L 22.21875 -29.6875 L 22.21875 -7.625 L 31.765625 -7.625 L 31.765625 0 Z M 3.203125 0 "/></g></g></g><g fill="#000000" fill-opacity="1"><g transform="translate(583.157713, 567.03123)"><g/></g></g><g fill="#000000" fill-opacity="1"><g transform="translate(605.790885, 567.03123)"><g><path d="M 17.90625 0 L 1.125 -34.484375 L 1.125 -37.3125 L 10.34375 -37.3125 L 23.875 -8.46875 L 25.84375 -8.46875 L 39.65625 -37.3125 L 48.609375 -37.3125 L 48.609375 -34.484375 L 31.546875 0 Z M 17.90625 0 "/></g></g></g><g fill="#000000" fill-opacity="1"><g transform="translate(655.477349, 567.03123)"><g><path d="M 3.203125 0 L 3.203125 -7.625 L 12.734375 -7.625 L 12.734375 -29.6875 L 3.203125 -29.6875 L 3.203125 -37.3125 L 31.765625 -37.3125 L 31.765625 -29.6875 L 22.21875 -29.6875 L 22.21875 -7.625 L 31.765625 -7.625 L 31.765625 0 Z M 3.203125 0 "/></g></g></g><g fill="#000000" fill-opacity="1"><g transform="translate(690.412333, 567.03123)"><g><path d="M 5.59375 0 L 5.59375 -37.3125 L 19.765625 -37.3125 L 38.6875 -9.59375 L 39.921875 -9.59375 L 39.921875 -37.3125 L 49.03125 -37.3125 L 49.03125 0 L 34.859375 0 L 15.9375 -27.71875 L 14.703125 -27.71875 L 14.703125 0 Z M 5.59375 0 "/></g></g></g><g fill="#000000" fill-opacity="1"><g transform="translate(744.998208, 567.03123)"><g><path d="M 32.9375 -37.3125 L 52.28125 -2.828125 L 52.28125 0 L 43.0625 0 L 39.0625 -7.40625 L 14.078125 -7.40625 L 10.078125 0 L 1.125 0 L 1.125 -2.828125 L 20.40625 -37.3125 Z M 18.328125 -15.40625 L 34.796875 -15.40625 L 27.28125 -29.421875 L 25.90625 -29.421875 Z M 18.328125 -15.40625 "/></g></g></g><g fill="#000000" fill-opacity="1"><g transform="translate(798.359229, 567.03123)"><g><path d="M 18.59375 0 L 18.59375 -12.6875 L 0.6875 -34.484375 L 0.6875 -37.3125 L 9.96875 -37.3125 L 22.75 -21.375 L 24.359375 -21.375 L 37.140625 -37.3125 L 46.046875 -37.3125 L 46.046875 -34.484375 L 28.09375 -12.6875 L 28.09375 0 Z M 18.59375 0 "/></g></g></g><g fill="#000000" fill-opacity="1"><g transform="translate(845.063448, 567.03123)"><g><path d="M 32.9375 -37.3125 L 52.28125 -2.828125 L 52.28125 0 L 43.0625 0 L 39.0625 -7.40625 L 14.078125 -7.40625 L 10.078125 0 L 1.125 0 L 1.125 -2.828125 L 20.40625 -37.3125 Z M 18.328125 -15.40625 L 34.796875 -15.40625 L 27.28125 -29.421875 L 25.90625 -29.421875 Z M 18.328125 -15.40625 "/></g></g></g><g fill="#000000" fill-opacity="1"><g transform="translate(898.424469, 567.03123)"><g><path d="M 5.59375 0 L 5.59375 -37.3125 L 15.078125 -37.3125 L 15.078125 -23.03125 L 24.09375 -23.03125 L 37.46875 -37.3125 L 47.0625 -37.3125 L 47.0625 -34.484375 L 32.1875 -19.140625 L 48.390625 -2.828125 L 48.390625 0 L 38.265625 0 L 24.296875 -14.703125 L 15.078125 -14.703125 L 15.078125 0 Z M 5.59375 0 "/></g></g></g><g fill="#000000" fill-opacity="1"><g transform="translate(317.898884, 628.850827)"><g><path d="M 13.375 0 L 13.375 -22.046875 L 0.546875 -22.046875 L 0.546875 -25.296875 L 29.8125 -25.296875 L 29.8125 -22.046875 L 16.984375 -22.046875 L 16.984375 0 Z M 13.375 0 "/></g></g></g><g fill="#000000" fill-opacity="1"><g transform="translate(348.230143, 628.850827)"><g><path d="M 4.34375 0 L 4.34375 -25.296875 L 25.734375 -25.296875 L 31.734375 -20.3125 L 31.734375 -13.984375 L 25.90625 -9.1875 L 32.703125 -1.265625 L 32.703125 0 L 29.09375 0 L 21.390625 -9.03125 L 7.953125 -9.03125 L 7.953125 0 Z M 7.953125 -12.28125 L 24.140625 -12.28125 L 28.125 -15.546875 L 28.125 -18.796875 L 24.140625 -22.046875 L 7.953125 -22.046875 Z M 7.953125 -12.28125 "/></g></g></g><g fill="#000000" fill-opacity="1"><g transform="translate(383.616593, 628.850827)"><g><path d="M 19.84375 -25.296875 L 33.4375 -1.265625 L 33.4375 0 L 30 0 L 26.28125 -6.6875 L 8.171875 -6.6875 L 4.4375 0 L 1.078125 0 L 1.078125 -1.265625 L 14.640625 -25.296875 Z M 10.015625 -9.9375 L 24.46875 -9.9375 L 17.59375 -22.21875 L 16.875 -22.21875 Z M 10.015625 -9.9375 "/></g></g></g><g fill="#000000" fill-opacity="1"><g transform="translate(418.100341, 628.850827)"><g><path d="M 13.765625 0 L 1.078125 -24.03125 L 1.078125 -25.296875 L 4.515625 -25.296875 L 16.078125 -3.25 L 16.984375 -3.25 L 28.734375 -25.296875 L 31.984375 -25.296875 L 31.984375 -24.03125 L 19.078125 0 Z M 13.765625 0 "/></g></g></g><g fill="#000000" fill-opacity="1"><g transform="translate(451.139736, 628.850827)"><g><path d="M 4.34375 0 L 4.34375 -25.296875 L 30.90625 -25.296875 L 30.90625 -22.046875 L 7.953125 -22.046875 L 7.953125 -14.28125 L 25.84375 -14.28125 L 25.84375 -11.015625 L 7.953125 -11.015625 L 7.953125 -3.25 L 31.4375 -3.25 L 31.4375 0 Z M 4.34375 0 "/></g></g></g><g fill="#000000" fill-opacity="1"><g transform="translate(484.540214, 628.850827)"><g><path d="M 4.34375 0 L 4.34375 -25.296875 L 7.953125 -25.296875 L 7.953125 -3.25 L 27.46875 -3.25 L 27.46875 0 Z M 4.34375 0 "/></g></g></g><g fill="#000000" fill-opacity="1"><g transform="translate(512.885498, 628.850827)"><g><path d="M 3.25 0 L 3.25 -3.25 L 23.703125 -3.25 L 26.5625 -5.609375 L 26.5625 -8.859375 L 23.703125 -11.203125 L 7.765625 -11.203125 L 2.890625 -15.25 L 2.890625 -21.25 L 7.765625 -25.296875 L 28.546875 -25.296875 L 28.546875 -22.046875 L 9.359375 -22.046875 L 6.5 -19.703125 L 6.5 -16.8125 L 9.359375 -14.453125 L 25.296875 -14.453125 L 30.171875 -10.40625 L 30.171875 -4.046875 L 25.296875 0 Z M 3.25 0 "/></g></g></g><g fill="#000000" fill-opacity="1"><g transform="translate(545.383271, 628.850827)"><g/></g></g><g fill="#000000" fill-opacity="1"><g transform="translate(560.729441, 628.850827)"><g><path d="M 7.953125 0 L 2.703125 -4.515625 L 2.703125 -9.796875 L 6.765625 -13.265625 L 3.609375 -15.828125 L 3.609375 -21.21875 L 8.5625 -25.296875 L 24.390625 -25.296875 L 24.390625 -22.046875 L 10.125 -22.046875 L 7.234375 -19.65625 L 7.234375 -17.015625 L 10.125 -14.640625 L 20.421875 -14.640625 L 20.421875 -11.390625 L 9.546875 -11.390625 L 6.328125 -8.59375 L 6.328125 -6.03125 L 9.546875 -3.25 L 22.21875 -3.25 L 25.65625 -6.21875 L 25.65625 -20.0625 L 29.09375 -20.0625 L 29.09375 -14.640625 L 35.234375 -14.640625 L 35.234375 -11.390625 L 29.09375 -11.390625 L 29.09375 -4.546875 L 23.8125 0 Z M 7.953125 0 "/></g></g></g><g fill="#000000" fill-opacity="1"><g transform="translate(596.838081, 628.850827)"><g/></g></g><g fill="#000000" fill-opacity="1"><g transform="translate(612.184251, 628.850827)"><g><path d="M 9.96875 0 L 3.4375 -5.53125 L 3.4375 -19.765625 L 9.96875 -25.296875 L 30.171875 -25.296875 L 30.171875 -22.046875 L 11.5625 -22.046875 L 7.046875 -18.25 L 7.046875 -7.046875 L 11.5625 -3.25 L 30.171875 -3.25 L 30.171875 0 Z M 9.96875 0 "/></g></g></g><g fill="#000000" fill-opacity="1"><g transform="translate(644.320942, 628.850827)"><g><path d="M 19.84375 -25.296875 L 33.4375 -1.265625 L 33.4375 0 L 30 0 L 26.28125 -6.6875 L 8.171875 -6.6875 L 4.4375 0 L 1.078125 0 L 1.078125 -1.265625 L 14.640625 -25.296875 Z M 10.015625 -9.9375 L 24.46875 -9.9375 L 17.59375 -22.21875 L 16.875 -22.21875 Z M 10.015625 -9.9375 "/></g></g></g><g fill="#000000" fill-opacity="1"><g transform="translate(678.80469, 628.850827)"><g><path d="M 4.34375 0 L 4.34375 -25.296875 L 25.734375 -25.296875 L 31.734375 -20.3125 L 31.734375 -13.984375 L 25.90625 -9.1875 L 32.703125 -1.265625 L 32.703125 0 L 29.09375 0 L 21.390625 -9.03125 L 7.953125 -9.03125 L 7.953125 0 Z M 7.953125 -12.28125 L 24.140625 -12.28125 L 28.125 -15.546875 L 28.125 -18.796875 L 24.140625 -22.046875 L 7.953125 -22.046875 Z M 7.953125 -12.28125 "/></g></g></g><g fill="#000000" fill-opacity="1"><g transform="translate(714.19114, 628.850827)"><g/></g></g><g fill="#000000" fill-opacity="1"><g transform="translate(729.53731, 628.850827)"><g><path d="M 4.34375 0 L 4.34375 -25.296875 L 25.734375 -25.296875 L 31.734375 -20.3125 L 31.734375 -13.984375 L 25.90625 -9.1875 L 32.703125 -1.265625 L 32.703125 0 L 29.09375 0 L 21.390625 -9.03125 L 7.953125 -9.03125 L 7.953125 0 Z M 7.953125 -12.28125 L 24.140625 -12.28125 L 28.125 -15.546875 L 28.125 -18.796875 L 24.140625 -22.046875 L 7.953125 -22.046875 Z M 7.953125 -12.28125 "/></g></g></g><g fill="#000000" fill-opacity="1"><g transform="translate(764.92376, 628.850827)"><g><path d="M 4.34375 0 L 4.34375 -25.296875 L 30.90625 -25.296875 L 30.90625 -22.046875 L 7.953125 -22.046875 L 7.953125 -14.28125 L 25.84375 -14.28125 L 25.84375 -11.015625 L 7.953125 -11.015625 L 7.953125 -3.25 L 31.4375 -3.25 L 31.4375 0 Z M 4.34375 0 "/></g></g></g><g fill="#000000" fill-opacity="1"><g transform="translate(798.324263, 628.850827)"><g><path d="M 4.34375 0 L 4.34375 -25.296875 L 10.59375 -25.296875 L 27.390625 -3.25 L 28.125 -3.25 L 28.125 -25.296875 L 31.625 -25.296875 L 31.625 0 L 25.375 0 L 8.5625 -22.046875 L 7.84375 -22.046875 L 7.84375 0 Z M 4.34375 0 "/></g></g></g><g fill="#000000" fill-opacity="1"><g transform="translate(834.252337, 628.850827)"><g><path d="M 13.375 0 L 13.375 -22.046875 L 0.546875 -22.046875 L 0.546875 -25.296875 L 29.8125 -25.296875 L 29.8125 -22.046875 L 16.984375 -22.046875 L 16.984375 0 Z M 13.375 0 "/></g></g></g><g fill="#000000" fill-opacity="1"><g transform="translate(864.583595, 628.850827)"><g><path d="M 19.84375 -25.296875 L 33.4375 -1.265625 L 33.4375 0 L 30 0 L 26.28125 -6.6875 L 8.171875 -6.6875 L 4.4375 0 L 1.078125 0 L 1.078125 -1.265625 L 14.640625 -25.296875 Z M 10.015625 -9.9375 L 24.46875 -9.9375 L 17.59375 -22.21875 L 16.875 -22.21875 Z M 10.015625 -9.9375 "/></g></g></g><g fill="#000000" fill-opacity="1"><g transform="translate(899.067343, 628.850827)"><g><path d="M 4.34375 0 L 4.34375 -25.296875 L 7.953125 -25.296875 L 7.953125 -3.25 L 27.46875 -3.25 L 27.46875 0 Z M 4.34375 0 "/></g></g></g></svg>